<svg xmlns="http://www.w3.org/2000/svg" width="48" height="48" viewBox="0 0 48 48">
  <circle cx="24" cy="24" r="24" fill="#1a73e8"/>
  <path d="M24 12c-6.627 0-12 5.373-12 12s5.373 12 12 12 12-5.373 12-12-5.373-12-12-12zm0 22c-5.514 0-10-4.486-10-10s4.486-10 10-10 10 4.486 10 10-4.486 10-10 10z" fill="white"/>
  <circle cx="24" cy="24" r="6" fill="white"/>
  <rect x="22" y="14" width="4" height="8" fill="white"/>
  <rect x="22" y="26" width="4" height="8" fill="white"/>
  <rect x="14" y="22" width="8" height="4" fill="white"/>
  <rect x="26" y="22" width="8" height="4" fill="white"/>
</svg>
